<svg xmlns="http://www.w3.org/2000/svg" version="1.1" xmlns:xlink="http://www.w3.org/1999/xlink" xmlns:svgjs="http://svgjs.dev/svgjs" width="1500" height="1500" viewBox="0 0 1500 1500"><rect width="1500" height="1500" fill="#000000"></rect><g transform="matrix(0.6666666666666666,0,0,0.6666666666666666,249.39393939393938,618.8253411473156)"><svg viewBox="0 0 396 104" data-background-color="#ffffff" preserveAspectRatio="xMidYMid meet" height="393" width="1500" xmlns="http://www.w3.org/2000/svg" xmlns:xlink="http://www.w3.org/1999/xlink"><g id="tight-bounds" transform="matrix(1,0,0,1,0.2400000000000091,0.06933023159990626)"><svg viewBox="0 0 395.52 103.86133953680019" height="103.86133953680019" width="395.52"><g><svg viewBox="0 0 571.107857175546 149.96972862622312" height="103.86133953680019" width="395.52"><g transform="matrix(1,0,0,1,0,20.72664122113504)"><svg viewBox="0 0 395.52 108.51644618395304" height="108.51644618395304" width="395.52"><g id="textblocktransform"><svg viewBox="0 0 395.52 108.51644618395304" height="108.51644618395304" width="395.52" id="textblock"><g><svg viewBox="0 0 395.52 108.51644618395304" height="108.51644618395304" width="395.52"><g transform="matrix(1,0,0,1,0,0)"><svg width="395.52" viewBox="3.75 -35.05 127.74000000000001 35.05" height="108.51644618395304" data-palette-color="#417dae"><path d="M6.9-35.05L6.9-35.05Q7.6-35.05 8.38-34.68 9.15-34.3 9.55-33.7L9.55-33.7 21.7-15 19.2-15.1 31.65-33.7Q32.6-35.05 34.1-35.05L34.1-35.05Q35.3-35.05 36.25-34.2 37.2-33.35 37.2-32L37.2-32 37.2-3.05Q37.2-1.75 36.35-0.88 35.5 0 34.1 0L34.1 0Q32.7 0 31.83-0.88 30.95-1.75 30.95-3.05L30.95-3.05 30.95-26.6 32.9-26.15 22.7-10.6Q22.25-10.05 21.58-9.65 20.9-9.25 20.2-9.3L20.2-9.3Q19.55-9.25 18.88-9.65 18.2-10.05 17.75-10.6L17.75-10.6 8.2-25.7 9.5-28.35 9.5-3.05Q9.5-1.75 8.7-0.88 7.9 0 6.6 0L6.6 0Q5.35 0 4.55-0.88 3.75-1.75 3.75-3.05L3.75-3.05 3.75-32Q3.75-33.25 4.67-34.15 5.6-35.05 6.9-35.05ZM47.75-35L47.75-35 64.5-35Q65.8-35 66.67-34.18 67.55-33.35 67.55-32.05L67.55-32.05Q67.55-30.8 66.67-30.03 65.8-29.25 64.5-29.25L64.5-29.25 50.5-29.25 50.95-30.1 50.95-20.35 50.55-20.75 62.25-20.75Q63.55-20.75 64.42-19.93 65.3-19.1 65.3-17.8L65.3-17.8Q65.3-16.55 64.42-15.78 63.55-15 62.25-15L62.25-15 50.7-15 50.95-15.4 50.95-5.3 50.55-5.75 64.5-5.75Q65.8-5.75 66.67-4.88 67.55-4 67.55-2.85L67.55-2.85Q67.55-1.6 66.67-0.8 65.8 0 64.5 0L64.5 0 47.75 0Q46.45 0 45.57-0.88 44.7-1.75 44.7-3.05L44.7-3.05 44.7-31.95Q44.7-33.25 45.57-34.13 46.45-35 47.75-35ZM85.15 0L85.15 0Q83.75 0 82.85-0.88 81.95-1.75 81.95-3.05L81.95-3.05 81.95-32.05 88.45-32.05 88.45-3.05Q88.45-1.75 87.52-0.88 86.6 0 85.15 0ZM96.3-29.25L74.1-29.25Q72.8-29.25 71.92-30.05 71.05-30.85 71.05-32.15L71.05-32.15Q71.05-33.45 71.92-34.23 72.8-35 74.1-35L74.1-35 96.3-35Q97.6-35 98.47-34.2 99.35-33.4 99.35-32.1L99.35-32.1Q99.35-30.8 98.47-30.03 97.6-29.25 96.3-29.25L96.3-29.25ZM107.79-35L128.24-35Q129.34-35 130.42-34.2 131.49-33.4 131.49-32.05L131.49-32.05Q131.49-31.1 130.79-30.15L130.79-30.15 111.64-5.55 111.04-5.75 127.74-5.75Q129.04-5.75 129.92-4.98 130.79-4.2 130.79-2.9L130.79-2.9Q130.79-1.65 129.92-0.83 129.04 0 127.74 0L127.74 0 105.79 0Q104.49 0 103.54-0.93 102.59-1.85 102.59-2.95L102.59-2.95Q102.59-3.9 103.29-4.85L103.29-4.85 122.49-29.55 122.94-29.25 107.79-29.25Q106.49-29.25 105.62-30.05 104.74-30.85 104.74-32.15L104.74-32.15Q104.74-33.45 105.62-34.23 106.49-35 107.79-35L107.79-35Z" opacity="1" transform="matrix(1,0,0,1,0,0)" fill="#ffffff" class="wordmark-text-0" data-fill-palette-color="primary" id="text-0"></path></svg></g></svg></g></svg></g></svg></g><g transform="matrix(1,0,0,1,421.13812854932286,0)"><svg viewBox="0 0 149.96972862622312 149.96972862622312" height="149.96972862622312" width="149.96972862622312"><g data-palette-color="#283132"><rect width="40.99172582450098" height="149.96972862622312" fill="#ffffff" stroke="transparent" data-fill-palette-color="accent" x="0" fill-opacity="1"></rect><rect width="40.99172582450098" height="149.96972862622312" fill="#ffffff" stroke="transparent" data-fill-palette-color="accent" x="49.98990954207437" fill-opacity="0.75"></rect><rect width="40.99172582450098" height="149.96972862622312" fill="#ffffff" stroke="transparent" data-fill-palette-color="accent" x="99.97981908414874" fill-opacity="0.5"></rect></g></svg></g></svg></g><defs></defs></svg><rect width="395.52" height="103.86133953680019" fill="none" stroke="none" visibility="hidden"></rect></g></svg></g></svg>